# xmcd
#
# Track frame offsets:
#	150
#	28382
#	49237
#	69037
#	84845
#	104140
#	125332
#	142970
#	173455
#	185762
#
# Disc length: 2732 seconds
#
# Revision: 2
# Processed by: cddbd v1.5PL3 Copyright (c) Steve Scherf et al.
# Submitted via: EasyCDDAExtractor 5.0.6
#
DISCID=840aaa0a
DTITLE=黃鶯鶯 - 來自心海的消息
DYEAR=1986
DGENRE=POP
TTITLE0=來自心海的消息
TTITLE1=現在流行什麼
TTITLE2=我願意
TTITLE3=淚\
TTITLE4=最後的情節
TTITLE5=愛的冒險
TTITLE6=面具
TTITLE7=夜未央
TTITLE8=也許\你曾
TTITLE9=我不在乎
EXTD=飛碟唱片
EXTT0=
EXTT1=
EXTT2=
EXTT3=
EXTT4=
EXTT5=
EXTT6=
EXTT7=
EXTT8=
EXTT9=
PLAYORDER=
